<mxfile host="65bd71144e">
    <diagram id="OryJ1JtIIYPbkjhZWBou" name="Page-1">
        <mxGraphModel dx="2339" dy="-4039" grid="0" gridSize="10" guides="1" tooltips="1" connect="1" arrows="1" fold="1" page="0" pageScale="1" pageWidth="850" pageHeight="1100" background="#ffffff" math="0" shadow="0">
            <root>
                <mxCell id="0"/>
                <mxCell id="1" parent="0"/>
                <mxCell id="4" value="&lt;font color=&quot;#000000&quot; style=&quot;font-size: 19px;&quot;&gt;Начало&lt;/font&gt;" style="ellipse;whiteSpace=wrap;html=1;fillColor=none;strokeColor=#000000;strokeWidth=2;fontFamily=Times New Roman;fontSize=19;" parent="1" vertex="1">
                    <mxGeometry x="-140" y="4950" width="170" height="70" as="geometry"/>
                </mxCell>
                <mxCell id="5" value="Подключение к сокету на основе определенного порта" style="rounded=0;whiteSpace=wrap;html=1;strokeColor=#000000;strokeWidth=2;fontFamily=Times New Roman;fontSize=18;fontColor=#000000;fillColor=none;" parent="1" vertex="1">
                    <mxGeometry x="-127.5" y="5026" width="145" height="84" as="geometry"/>
                </mxCell>
                <mxCell id="6" value="Соединение установлено" style="rhombus;whiteSpace=wrap;html=1;strokeColor=#000000;strokeWidth=2;fontFamily=Times New Roman;fontSize=18;fontColor=#000000;fillColor=none;" parent="1" vertex="1">
                    <mxGeometry x="-127" y="5115" width="144" height="107" as="geometry"/>
                </mxCell>
                <mxCell id="8" value="Главный рабочий цикл" style="shape=loopLimit;whiteSpace=wrap;html=1;strokeColor=#000000;strokeWidth=2;fontFamily=Times New Roman;fontSize=19;fontColor=#000000;fillColor=none;" parent="1" vertex="1">
                    <mxGeometry x="-117.5" y="5230" width="125" height="80" as="geometry"/>
                </mxCell>
                <mxCell id="9" value="Вход в онлайн-сервис" style="shape=process;whiteSpace=wrap;html=1;backgroundOutline=1;strokeColor=#000000;strokeWidth=2;fontFamily=Times New Roman;fontSize=19;fontColor=#000000;fillColor=none;" parent="1" vertex="1">
                    <mxGeometry x="-122" y="5318" width="134" height="82" as="geometry"/>
                </mxCell>
                <mxCell id="10" value="Осуществлен&amp;nbsp;&lt;br&gt;ли вход&lt;br style=&quot;font-size: 18px;&quot;&gt;&amp;nbsp;в программное&lt;br style=&quot;font-size: 18px;&quot;&gt;&amp;nbsp;средство" style="rhombus;whiteSpace=wrap;html=1;strokeColor=#000000;strokeWidth=2;fontFamily=Times New Roman;fontSize=18;fontColor=#000000;fillColor=none;" parent="1" vertex="1">
                    <mxGeometry x="-169" y="5405" width="228" height="139" as="geometry"/>
                </mxCell>
                <mxCell id="11" value="" style="endArrow=none;html=1;fontFamily=Arial;fontSize=14;fontColor=#000000;entryX=0.5;entryY=1;entryDx=0;entryDy=0;exitX=0.5;exitY=0;exitDx=0;exitDy=0;strokeColor=#000000;strokeWidth=2;" parent="1" source="5" target="4" edge="1">
                    <mxGeometry width="50" height="50" relative="1" as="geometry">
                        <mxPoint x="89" y="5280" as="sourcePoint"/>
                        <mxPoint x="139" y="5230" as="targetPoint"/>
                    </mxGeometry>
                </mxCell>
                <mxCell id="13" value="" style="endArrow=none;html=1;strokeColor=#000000;strokeWidth=2;fontFamily=Arial;fontSize=14;fontColor=#000000;entryX=0.5;entryY=1;entryDx=0;entryDy=0;exitX=0.5;exitY=0;exitDx=0;exitDy=0;" parent="1" source="6" target="5" edge="1">
                    <mxGeometry width="50" height="50" relative="1" as="geometry">
                        <mxPoint x="-15" y="5194" as="sourcePoint"/>
                        <mxPoint x="35" y="5144" as="targetPoint"/>
                    </mxGeometry>
                </mxCell>
                <mxCell id="14" value="" style="endArrow=none;html=1;strokeColor=#000000;strokeWidth=2;fontFamily=Arial;fontSize=14;fontColor=#000000;exitX=0.5;exitY=0;exitDx=0;exitDy=0;entryX=0.5;entryY=1;entryDx=0;entryDy=0;" parent="1" source="8" target="6" edge="1">
                    <mxGeometry width="50" height="50" relative="1" as="geometry">
                        <mxPoint x="-15" y="5194" as="sourcePoint"/>
                        <mxPoint x="35" y="5144" as="targetPoint"/>
                    </mxGeometry>
                </mxCell>
                <mxCell id="15" value="" style="endArrow=none;html=1;strokeColor=#000000;strokeWidth=2;fontFamily=Arial;fontSize=14;fontColor=#000000;entryX=0.5;entryY=0;entryDx=0;entryDy=0;exitX=0.5;exitY=1;exitDx=0;exitDy=0;" parent="1" source="8" target="9" edge="1">
                    <mxGeometry width="50" height="50" relative="1" as="geometry">
                        <mxPoint x="8" y="5161" as="sourcePoint"/>
                        <mxPoint x="58" y="5111" as="targetPoint"/>
                    </mxGeometry>
                </mxCell>
                <mxCell id="16" value="" style="endArrow=none;html=1;strokeColor=#000000;strokeWidth=2;fontFamily=Arial;fontSize=14;fontColor=#000000;exitX=0.5;exitY=0;exitDx=0;exitDy=0;entryX=0.5;entryY=1;entryDx=0;entryDy=0;" parent="1" source="10" target="9" edge="1">
                    <mxGeometry width="50" height="50" relative="1" as="geometry">
                        <mxPoint x="8" y="5161" as="sourcePoint"/>
                        <mxPoint x="58" y="5111" as="targetPoint"/>
                    </mxGeometry>
                </mxCell>
                <mxCell id="17" value="" style="endArrow=none;html=1;strokeColor=#000000;strokeWidth=2;fontFamily=Arial;fontSize=14;fontColor=#000000;exitX=1;exitY=0.5;exitDx=0;exitDy=0;" parent="1" source="6" edge="1">
                    <mxGeometry width="50" height="50" relative="1" as="geometry">
                        <mxPoint x="18" y="5363" as="sourcePoint"/>
                        <mxPoint x="132" y="5168" as="targetPoint"/>
                    </mxGeometry>
                </mxCell>
                <mxCell id="18" value="1" style="ellipse;whiteSpace=wrap;html=1;aspect=fixed;strokeColor=#000000;strokeWidth=2;fontFamily=Times New Roman;fontSize=19;fontColor=#000000;fillColor=none;" parent="1" vertex="1">
                    <mxGeometry x="112.75" y="5257" width="32" height="32" as="geometry"/>
                </mxCell>
                <mxCell id="21" value="Вывод сообщения&lt;br style=&quot;font-size: 18px;&quot;&gt;&amp;nbsp;об ошибке" style="shape=parallelogram;perimeter=parallelogramPerimeter;whiteSpace=wrap;html=1;fixedSize=1;strokeColor=#000000;strokeWidth=2;fontFamily=Times New Roman;fontSize=18;fontColor=#000000;fillColor=none;" parent="1" vertex="1">
                    <mxGeometry x="57" y="5182" width="134.25" height="64.5" as="geometry"/>
                </mxCell>
                <mxCell id="22" value="" style="endArrow=none;html=1;strokeColor=#000000;strokeWidth=2;fontFamily=Arial;fontSize=14;fontColor=#000000;" parent="1" edge="1">
                    <mxGeometry width="50" height="50" relative="1" as="geometry">
                        <mxPoint x="132" y="5181" as="sourcePoint"/>
                        <mxPoint x="132" y="5167" as="targetPoint"/>
                    </mxGeometry>
                </mxCell>
                <mxCell id="23" value="" style="endArrow=none;html=1;strokeColor=#000000;strokeWidth=2;fontFamily=Arial;fontSize=14;fontColor=#000000;exitX=0.5;exitY=0;exitDx=0;exitDy=0;" parent="1" edge="1" source="18">
                    <mxGeometry width="50" height="50" relative="1" as="geometry">
                        <mxPoint x="128.53" y="5287.5" as="sourcePoint"/>
                        <mxPoint x="128.98" y="5247" as="targetPoint"/>
                    </mxGeometry>
                </mxCell>
                <mxCell id="24" value="" style="endArrow=none;html=1;strokeColor=#000000;strokeWidth=2;fontFamily=Arial;fontSize=14;fontColor=#000000;" parent="1" edge="1">
                    <mxGeometry width="50" height="50" relative="1" as="geometry">
                        <mxPoint x="58" y="5474" as="sourcePoint"/>
                        <mxPoint x="151" y="5474" as="targetPoint"/>
                    </mxGeometry>
                </mxCell>
                <mxCell id="25" value="2" style="ellipse;whiteSpace=wrap;html=1;aspect=fixed;strokeColor=#000000;strokeWidth=2;fontFamily=Times New Roman;fontSize=19;fontColor=#000000;fillColor=none;" parent="1" vertex="1">
                    <mxGeometry x="137.5" y="5568" width="32" height="32" as="geometry"/>
                </mxCell>
                <mxCell id="26" value="Вывод &lt;br style=&quot;font-size: 17px;&quot;&gt;сообщения &lt;br&gt;о неверных &lt;br style=&quot;font-size: 17px;&quot;&gt;данных" style="shape=parallelogram;perimeter=parallelogramPerimeter;whiteSpace=wrap;html=1;fixedSize=1;strokeColor=#000000;strokeWidth=2;fontFamily=Times New Roman;fontSize=17;fontColor=#000000;fillColor=none;" parent="1" vertex="1">
                    <mxGeometry x="87.37" y="5481" width="132.25" height="77" as="geometry"/>
                </mxCell>
                <mxCell id="27" value="" style="endArrow=none;html=1;strokeColor=#000000;strokeWidth=2;fontFamily=Arial;fontSize=14;fontColor=#000000;exitX=0.473;exitY=-0.012;exitDx=0;exitDy=0;exitPerimeter=0;" parent="1" edge="1" source="26">
                    <mxGeometry width="50" height="50" relative="1" as="geometry">
                        <mxPoint x="150.25" y="5512" as="sourcePoint"/>
                        <mxPoint x="150" y="5474" as="targetPoint"/>
                    </mxGeometry>
                </mxCell>
                <mxCell id="28" value="" style="endArrow=none;html=1;strokeColor=#000000;strokeWidth=2;fontFamily=Arial;fontSize=14;fontColor=#000000;entryX=0.5;entryY=1;entryDx=0;entryDy=0;exitX=0.5;exitY=0;exitDx=0;exitDy=0;" parent="1" target="26" edge="1" source="25">
                    <mxGeometry width="50" height="50" relative="1" as="geometry">
                        <mxPoint x="153.30000000000018" y="5709.5" as="sourcePoint"/>
                        <mxPoint x="153.30000000000018" y="5664.5" as="targetPoint"/>
                    </mxGeometry>
                </mxCell>
                <mxCell id="29" value="" style="endArrow=none;html=1;strokeColor=#000000;strokeWidth=2;fontFamily=Arial;fontSize=14;fontColor=#000000;entryX=0.5;entryY=1;entryDx=0;entryDy=0;exitX=0.5;exitY=0;exitDx=0;exitDy=0;" parent="1" target="10" edge="1" source="35">
                    <mxGeometry width="50" height="50" relative="1" as="geometry">
                        <mxPoint x="-55" y="5704" as="sourcePoint"/>
                        <mxPoint x="194" y="5422" as="targetPoint"/>
                    </mxGeometry>
                </mxCell>
                <mxCell id="30" value="Нет" style="text;html=1;align=center;verticalAlign=middle;resizable=0;points=[];autosize=1;strokeColor=none;fillColor=none;fontSize=19;fontFamily=Times New Roman;fontColor=#000000;" parent="1" vertex="1">
                    <mxGeometry x="64.75" y="5134" width="48" height="35" as="geometry"/>
                </mxCell>
                <mxCell id="31" value="Да" style="text;html=1;align=center;verticalAlign=middle;resizable=0;points=[];autosize=1;strokeColor=none;fillColor=none;fontSize=18;fontFamily=Times New Roman;fontColor=#000000;" parent="1" vertex="1">
                    <mxGeometry x="-96" y="5200" width="38" height="34" as="geometry"/>
                </mxCell>
                <mxCell id="32" value="Нет" style="text;html=1;align=center;verticalAlign=middle;resizable=0;points=[];autosize=1;strokeColor=none;fillColor=none;fontSize=19;fontFamily=Times New Roman;fontColor=#000000;" parent="1" vertex="1">
                    <mxGeometry x="109.87" y="5446" width="48" height="35" as="geometry"/>
                </mxCell>
                <mxCell id="33" value="Да" style="text;html=1;align=center;verticalAlign=middle;resizable=0;points=[];autosize=1;strokeColor=none;fillColor=none;fontSize=19;fontFamily=Times New Roman;fontColor=#000000;" parent="1" vertex="1">
                    <mxGeometry x="-89" y="5530" width="39" height="35" as="geometry"/>
                </mxCell>
                <mxCell id="35" value="3" style="ellipse;whiteSpace=wrap;html=1;aspect=fixed;strokeColor=#000000;strokeWidth=2;fontFamily=Times New Roman;fontSize=19;fontColor=#000000;fillColor=none;" parent="1" vertex="1">
                    <mxGeometry x="-71" y="5568" width="32" height="32" as="geometry"/>
                </mxCell>
                <mxCell id="36" value="3" style="ellipse;whiteSpace=wrap;html=1;aspect=fixed;strokeColor=#000000;strokeWidth=2;fontFamily=Times New Roman;fontSize=18;fontColor=#000000;fillColor=none;" parent="1" vertex="1">
                    <mxGeometry x="258" y="4969" width="32" height="32" as="geometry"/>
                </mxCell>
                <mxCell id="37" value="" style="endArrow=none;html=1;strokeColor=#000000;strokeWidth=2;fontFamily=Arial;fontSize=14;fontColor=#000000;entryX=0.5;entryY=1;entryDx=0;entryDy=0;" parent="1" target="36" edge="1">
                    <mxGeometry width="50" height="50" relative="1" as="geometry">
                        <mxPoint x="274" y="5008" as="sourcePoint"/>
                        <mxPoint x="404" y="5350" as="targetPoint"/>
                    </mxGeometry>
                </mxCell>
                <mxCell id="38" value="Вывод информации&lt;br style=&quot;font-size: 18px;&quot;&gt;&amp;nbsp;на главный экран" style="shape=parallelogram;perimeter=parallelogramPerimeter;whiteSpace=wrap;html=1;fixedSize=1;strokeColor=#000000;strokeWidth=2;fontFamily=Times New Roman;fontSize=18;fontColor=#000000;fillColor=none;" parent="1" vertex="1">
                    <mxGeometry x="192" y="5009" width="180" height="66" as="geometry"/>
                </mxCell>
                <mxCell id="39" value="Главный рабочий цикл" style="shape=loopLimit;whiteSpace=wrap;html=1;strokeColor=#000000;strokeWidth=2;fontFamily=Times New Roman;fontSize=19;fontColor=#000000;fillColor=none;direction=west;" parent="1" vertex="1">
                    <mxGeometry x="224" y="5085" width="100" height="80" as="geometry"/>
                </mxCell>
                <mxCell id="40" value="" style="endArrow=none;html=1;strokeColor=#000000;strokeWidth=2;fontFamily=Arial;fontSize=14;fontColor=#000000;entryX=0.455;entryY=0.993;entryDx=0;entryDy=0;exitX=0.5;exitY=1;exitDx=0;exitDy=0;entryPerimeter=0;" parent="1" source="39" target="38" edge="1">
                    <mxGeometry width="50" height="50" relative="1" as="geometry">
                        <mxPoint x="292" y="5408" as="sourcePoint"/>
                        <mxPoint x="342" y="5358" as="targetPoint"/>
                    </mxGeometry>
                </mxCell>
                <mxCell id="41" value="&lt;font color=&quot;#000000&quot; style=&quot;font-size: 19px;&quot;&gt;Конец&lt;/font&gt;" style="ellipse;whiteSpace=wrap;html=1;fillColor=none;strokeColor=#000000;strokeWidth=2;fontFamily=Times New Roman;fontSize=19;" parent="1" vertex="1">
                    <mxGeometry x="189" y="5223" width="170" height="70" as="geometry"/>
                </mxCell>
                <mxCell id="42" value="" style="endArrow=none;html=1;strokeColor=#000000;strokeWidth=2;fontFamily=Arial;fontSize=14;fontColor=#000000;entryX=0.5;entryY=0;entryDx=0;entryDy=0;exitX=0.5;exitY=0;exitDx=0;exitDy=0;" parent="1" source="41" target="39" edge="1">
                    <mxGeometry width="50" height="50" relative="1" as="geometry">
                        <mxPoint x="368" y="5374" as="sourcePoint"/>
                        <mxPoint x="418" y="5324" as="targetPoint"/>
                    </mxGeometry>
                </mxCell>
                <mxCell id="43" value="1" style="ellipse;whiteSpace=wrap;html=1;aspect=fixed;strokeColor=#000000;strokeWidth=2;fontFamily=Times New Roman;fontSize=19;fontColor=#000000;fillColor=none;" parent="1" vertex="1">
                    <mxGeometry x="384" y="5162" width="32" height="32" as="geometry"/>
                </mxCell>
                <mxCell id="44" value="2" style="ellipse;whiteSpace=wrap;html=1;aspect=fixed;strokeColor=#000000;strokeWidth=2;fontFamily=Times New Roman;fontSize=19;fontColor=#000000;fillColor=none;" parent="1" vertex="1">
                    <mxGeometry x="384" y="5198" width="32" height="32" as="geometry"/>
                </mxCell>
                <mxCell id="46" value="" style="endArrow=none;html=1;strokeColor=#000000;strokeWidth=2;fontFamily=Arial;fontSize=14;fontColor=#000000;entryX=0;entryY=0.5;entryDx=0;entryDy=0;" parent="1" target="43" edge="1">
                    <mxGeometry width="50" height="50" relative="1" as="geometry">
                        <mxPoint x="274" y="5178" as="sourcePoint"/>
                        <mxPoint x="423" y="5163" as="targetPoint"/>
                    </mxGeometry>
                </mxCell>
                <mxCell id="47" value="" style="endArrow=none;html=1;strokeColor=#000000;strokeWidth=2;fontFamily=Arial;fontSize=14;fontColor=#000000;entryX=0;entryY=0.5;entryDx=0;entryDy=0;" parent="1" edge="1">
                    <mxGeometry width="50" height="50" relative="1" as="geometry">
                        <mxPoint x="274" y="5213.78" as="sourcePoint"/>
                        <mxPoint x="383.99999999996317" y="5213.78" as="targetPoint"/>
                    </mxGeometry>
                </mxCell>
            </root>
        </mxGraphModel>
    </diagram>
</mxfile>